<?xml version="1.0" encoding="UTF-8"?>
<svg data-name="Ebene 1" viewBox="0 0 800 800" xmlns="http://www.w3.org/2000/svg">
 <defs>
  <clipPath id="d">
   <circle cx="400" cy="400" r="400" fill="none"/>
  </clipPath>
  <linearGradient id="c" x1="156.22" x2="405.72" y1="663.22" y2="413.72" gradientUnits="userSpaceOnUse">
   <stop stop-opacity="0" offset="0"/>
   <stop offset="1"/>
  </linearGradient>
 </defs>
 <circle cx="400" cy="400" r="400" fill="#1c8adb"/>
 <g clip-path="url(#d)">
  <path d="m258.99 780.99 234.48-234.48-8.4717-31.396c-11.462 6.4787-34.386 16.445-60.799 16.445a100.91 100.91 0 0 1 -42.699 -9.0654l86.055-85.123v-24.42h-30.536l30.536-29.902v-24.918h-64.971l77.43-76.746 9.9672-32.892c-13.954-7.4752-36.878-15.947-66.281-15.947-40.747 0-73.069 14.868-98.452 41.138l-293.76 293.76c39.379 81.788 111.82 153.96 227.5 213.54z" fill="url(#c)" opacity=".42"/>
  <path d="m493.47 546.52c-15.449 10.466-41.363 20.931-74.255 20.931-40.366 0-76.248-15.449-101.17-44.353-18.937-20.931-31.396-49.836-35.882-85.717h-30.898v-24.419h28.406v-7.4756c0-7.9737 0.4985-15.449 0.9969-22.426h-29.403v-24.918h32.892c5.98-34.885 20.931-63.789 40.865-84.222 25.416-26.412 57.81-41.363 98.674-41.363 29.403 0 52.328 8.4721 66.281 15.947l-9.9667 32.892c-12.459-7.4756-33.39-13.954-55.816-13.954-26.912 0-48.839 9.4686-65.783 27.409-14.951 14.452-24.918 36.878-29.901 63.291h139.04v24.918h-143.53c-0.4985 6.4787-0.9965 13.954-0.9965 20.931v8.9706h144.52v24.419h-141.03c3.9868 28.905 13.954 50.334 27.409 65.284 18.439 19.436 43.356 28.905 70.268 28.905 26.413 0 49.337-9.9667 60.8-16.445z" fill="#fff"/>
 </g>
</svg>
